<?xml version="1.0" encoding="utf-8"?>
<!-- Generator: Adobe Illustrator 24.0.0, SVG Export Plug-In . SVG Version: 6.00 Build 0)  -->
<svg version="1.1" id="Calque_1" xmlns="http://www.w3.org/2000/svg" xmlns:xlink="http://www.w3.org/1999/xlink" x="0px" y="0px"
	 viewBox="0 0 48 48" style="enable-background:new 0 0 48 48;" xml:space="preserve">
<style type="text/css">
	.st0{fill:#CDCDCD;}
</style>
<path class="st0" d="M24.1,35.7c0.6,0,1.1-0.2,1.6-0.7c0.5-0.5,0.7-1,0.7-1.6c0-0.6-0.2-1.2-0.7-1.6c-0.5-0.4-1-0.7-1.6-0.7
	s-1.1,0.2-1.6,0.7s-0.7,1-0.7,1.6c0,0.6,0.2,1.1,0.7,1.6S23.5,35.7,24.1,35.7z M22,28.4h3.7c0-0.8,0.1-1.6,0.3-2.3s0.8-1.5,1.9-2.4
	c1-0.7,1.7-1.5,2.1-2.4c0.4-0.9,0.6-1.8,0.6-2.9c0-1.9-0.5-3.4-1.6-4.5s-2.6-1.7-4.5-1.7c-1.7,0-3.3,0.5-4.6,1.4s-2.4,2.2-3,3.8
	l3.5,1.3c0.4-1,0.9-1.7,1.6-2.2c0.7-0.5,1.4-0.7,2.2-0.7c0.8,0,1.5,0.2,2.1,0.7c0.6,0.5,0.9,1.1,0.9,2c0,0.6-0.2,1.2-0.6,1.8
	c-0.4,0.6-0.9,1.2-1.6,1.7c-0.9,0.8-1.6,1.7-2.1,2.6C22.2,25.6,22,26.9,22,28.4z M24,45.3c-2.9,0-5.7-0.6-8.3-1.7
	C13.1,42.5,10.9,41,9,39c-1.9-1.9-3.4-4.2-4.6-6.8c-1.1-2.6-1.7-5.3-1.7-8.3c0-3,0.6-5.7,1.7-8.3c1.1-2.6,2.6-4.8,4.5-6.7
	c1.9-1.9,4.2-3.4,6.8-4.6S21,2.7,24,2.7c3,0,5.8,0.6,8.3,1.7c2.6,1.1,4.8,2.6,6.8,4.5c1.9,1.9,3.4,4.2,4.5,6.7
	c1.1,2.6,1.7,5.4,1.7,8.3c0,2.9-0.6,5.7-1.7,8.3c-1.1,2.6-2.6,4.8-4.6,6.8c-1.9,1.9-4.2,3.4-6.7,4.5C29.8,44.7,27,45.3,24,45.3z"/>
</svg>
