<?xml version="1.0" encoding="utf-8"?>
<!-- Generator: Adobe Illustrator 24.0.0, SVG Export Plug-In . SVG Version: 6.00 Build 0)  -->
<svg version="1.1" id="Calque_1" xmlns="http://www.w3.org/2000/svg" xmlns:xlink="http://www.w3.org/1999/xlink" x="0px" y="0px"
	 viewBox="0 0 48 48" style="enable-background:new 0 0 48 48;" xml:space="preserve">
<style type="text/css">
	.st0{fill:#CDCDCD;}
</style>
<path class="st0" d="M24,23.8c1,0,1.9-0.4,2.7-1.1c0.8-0.7,1.1-1.6,1.1-2.7c0-1-0.4-1.9-1.1-2.7c-0.7-0.8-1.6-1.1-2.7-1.1
	s-1.9,0.4-2.7,1.1c-0.8,0.7-1.1,1.6-1.1,2.7s0.4,1.9,1.1,2.7S22.9,23.8,24,23.8z M24,45.1c-5.6-4.8-9.8-9.3-12.6-13.4
	c-2.8-4.1-4.2-7.9-4.2-11.4c0-5.3,1.7-9.4,5.1-12.6c3.4-3.1,7.3-4.7,11.8-4.7c4.5,0,8.4,1.6,11.8,4.7c3.4,3.1,5.1,7.3,5.1,12.6
	c0,3.5-1.4,7.3-4.2,11.4C33.9,35.8,29.6,40.3,24,45.1z"/>
</svg>
