<?xml version="1.0" encoding="utf-8"?>
<!-- Generator: Adobe Illustrator 24.0.0, SVG Export Plug-In . SVG Version: 6.00 Build 0)  -->
<svg version="1.1" id="Calque_1" xmlns="http://www.w3.org/2000/svg" xmlns:xlink="http://www.w3.org/1999/xlink" x="0px" y="0px"
	 viewBox="0 0 48 48" style="enable-background:new 0 0 48 48;" xml:space="preserve">
<style type="text/css">
	.st0{fill:#CDCDCD;}
</style>
<path class="st0" d="M18.3,45.3l-1.1-6.7c-0.4-0.1-0.9-0.4-1.5-0.7s-1-0.6-1.4-0.9l-6.3,2.9L2.4,29.6l5.7-4.1C8,25.3,8,25,8,24.7
	s0-0.5,0-0.7c0-0.2,0-0.4,0-0.7c0-0.3,0-0.5,0.1-0.7l-5.7-4.2L8.2,8.2l6.3,2.9c0.3-0.3,0.8-0.6,1.3-0.9c0.5-0.3,1-0.5,1.4-0.6
	l1.1-6.9h11.4l1,6.8c0.4,0.2,0.9,0.4,1.5,0.7c0.5,0.3,1,0.6,1.4,0.9l6.3-2.9l5.8,10.2l-5.8,4.1c0,0.2,0.1,0.5,0.1,0.8
	c0,0.3,0,0.5,0,0.8c0,0.2,0,0.5,0,0.8c0,0.3-0.1,0.5-0.1,0.8l5.8,4.1l-5.8,10.3L33.5,37c-0.4,0.3-0.8,0.6-1.3,0.9
	c-0.5,0.3-1,0.5-1.5,0.7l-1,6.7H18.3z M23.9,30.5c1.8,0,3.3-0.6,4.6-1.9c1.3-1.3,1.9-2.8,1.9-4.6c0-1.8-0.6-3.3-1.9-4.6
	c-1.3-1.3-2.8-1.9-4.6-1.9c-1.8,0-3.3,0.6-4.6,1.9c-1.3,1.3-1.9,2.8-1.9,4.6c0,1.8,0.6,3.3,1.9,4.6C20.6,29.9,22.1,30.5,23.9,30.5z"
	/>
</svg>
