<?xml version="1.0" encoding="utf-8"?>
<!-- Generator: Adobe Illustrator 24.0.0, SVG Export Plug-In . SVG Version: 6.00 Build 0)  -->
<svg version="1.1" id="Calque_1" xmlns="http://www.w3.org/2000/svg" xmlns:xlink="http://www.w3.org/1999/xlink" x="0px" y="0px"
	 viewBox="0 0 48 48" style="enable-background:new 0 0 48 48;" xml:space="preserve">
<style type="text/css">
	.st0{fill:#CDCDCD;}
</style>
<path class="st0" d="M30.8,33.9l3.1-3l-7.7-7.8v-9.5h-4.1v11.2L30.8,33.9z M24,45.3c-2.9,0-5.7-0.6-8.3-1.7C13.2,42.5,10.9,41,9,39
	c-1.9-1.9-3.4-4.2-4.6-6.8S2.8,26.9,2.8,24c0-2.9,0.6-5.7,1.7-8.3C5.5,13.1,7.1,10.9,9,9s4.2-3.4,6.7-4.6c2.6-1.1,5.3-1.7,8.3-1.7
	s5.7,0.6,8.3,1.7C34.9,5.5,37.1,7.1,39,9c1.9,1.9,3.4,4.2,4.6,6.7c1.1,2.6,1.7,5.3,1.7,8.3s-0.6,5.7-1.7,8.3
	c-1.1,2.6-2.7,4.8-4.6,6.7c-1.9,1.9-4.2,3.4-6.7,4.6C29.7,44.7,26.9,45.3,24,45.3z"/>
</svg>
