<svg id="Calque_1" data-name="Calque 1" xmlns="http://www.w3.org/2000/svg" viewBox="0 0 47.3 32.33"><defs><style>.cls-1{fill:#f4813f;}</style></defs><title>pen</title><path class="cls-1" d="M25.2,34.65,43,16.9,39.8,13.8,22.1,31.55Zm-14.35,3.5q-5.1-.3-7.7-2.2a6.31,6.31,0,0,1-2.6-5.4A6.26,6.26,0,0,1,3.08,25.4a14.68,14.68,0,0,1,7.17-2.65,12.85,12.85,0,0,0,3.38-.8,1.41,1.41,0,0,0,.92-1.3c0-.77-.51-1.38-1.52-1.85A16.41,16.41,0,0,0,8.2,17.75l.35-4.3a16.22,16.22,0,0,1,7.65,2.38,5.65,5.65,0,0,1,2.7,4.82,5.12,5.12,0,0,1-2,4.08A11.8,11.8,0,0,1,11.25,27,13.55,13.55,0,0,0,6.5,28.3a2.64,2.64,0,0,0-1.6,2.3,2.47,2.47,0,0,0,1.58,2.18,11.76,11.76,0,0,0,4.57,1ZM26.5,39.5l-9.3-9.3L37.55,9.9a3,3,0,0,1,2.3-1,3.32,3.32,0,0,1,2.3,1l4.7,4.7a3.2,3.2,0,0,1,0,4.65Zm-8.15,1.7a2.27,2.27,0,0,1-2.17-.67,2.21,2.21,0,0,1-.68-2.13l1.7-8.2,9.3,9.3Z" transform="translate(-0.55 -8.92)"/></svg>