<svg id="Calque_1" data-name="Calque 1" xmlns="http://www.w3.org/2000/svg" viewBox="0 0 38.35 42.3"><defs><style>.cls-1{fill:#fff;}</style></defs><title>share</title><path class="cls-1" d="M36.35,45.15a6.69,6.69,0,0,1-6.77-7.73,6.34,6.34,0,0,1,.22-1L16.5,28.65a6.69,6.69,0,0,1-2.17,1.6,6,6,0,0,1-2.61.6,6.6,6.6,0,0,1-4.87-2,6.84,6.84,0,0,1,0-9.67,6.63,6.63,0,0,1,4.87-2,6.38,6.38,0,0,1,2.56.53A7.09,7.09,0,0,1,16.5,19.2l13.3-7.65a4.6,4.6,0,0,1-.22-.92,6.76,6.76,0,0,1-.08-1,6.57,6.57,0,0,1,2-4.82,6.81,6.81,0,0,1,9.67,0,6.59,6.59,0,0,1,2,4.83,6.64,6.64,0,0,1-2,4.84,6.63,6.63,0,0,1-4.87,2,8.27,8.27,0,0,1-2.6-.4,4.36,4.36,0,0,1-2.08-1.4L18.3,22a4.35,4.35,0,0,1,.2,1.05c0,.4.05.72.05,1a8,8,0,0,1-.05.8,5.12,5.12,0,0,1-.2.94L31.65,33.2a5.58,5.58,0,0,1,2-1.3,7.4,7.4,0,0,1,2.67-.45,6.84,6.84,0,0,1,4.85,11.69A6.59,6.59,0,0,1,36.35,45.15Z" transform="translate(-4.85 -2.85)"/></svg>