<?xml version="1.0" encoding="utf-8"?>
<!-- Generator: Adobe Illustrator 24.0.0, SVG Export Plug-In . SVG Version: 6.00 Build 0)  -->
<svg version="1.1" id="Calque_1" xmlns="http://www.w3.org/2000/svg" xmlns:xlink="http://www.w3.org/1999/xlink" x="0px" y="0px"
	 viewBox="0 0 48 48" style="enable-background:new 0 0 48 48;" xml:space="preserve">
<style type="text/css">
	.st0{fill:#F00C1C;}
	.st1{fill:#FFFFFF;}
</style>
<path class="st0" d="M24,45.3c-2.9,0-5.7-0.6-8.3-1.7c-2.6-1.1-4.8-2.6-6.8-4.6c-1.9-1.9-3.4-4.2-4.6-6.8C3.3,29.7,2.7,27,2.7,24
	c0-3,0.6-5.7,1.7-8.3C5.5,13.1,7,10.9,8.9,9c1.9-1.9,4.2-3.4,6.8-4.6C18.3,3.3,21,2.7,24,2.7c3,0,5.8,0.6,8.3,1.7
	c2.6,1.1,4.8,2.6,6.8,4.5c1.9,1.9,3.4,4.2,4.5,6.7c1.1,2.6,1.7,5.4,1.7,8.3c0,2.9-0.6,5.7-1.7,8.3S41,37.1,39,39.1
	c-1.9,1.9-4.2,3.4-6.7,4.5C29.7,44.7,27,45.3,24,45.3z"/>
<path class="st1" d="M16.9,33.6l7.1-7.1l7.1,7.1l2.5-2.5L26.5,24l7.1-7.1l-2.5-2.5L24,21.5l-7.1-7.1l-2.5,2.5l7.1,7.1l-7.1,7.1
	L16.9,33.6z M24,45.3c-2.9,0-5.7-0.6-8.3-1.7c-2.6-1.1-4.8-2.6-6.8-4.6c-1.9-1.9-3.4-4.2-4.6-6.8C3.3,29.7,2.7,27,2.7,24
	c0-3,0.6-5.7,1.7-8.3C5.5,13.1,7,10.9,8.9,9c1.9-1.9,4.2-3.4,6.8-4.6C18.3,3.3,21,2.7,24,2.7c3,0,5.8,0.6,8.3,1.7
	c2.6,1.1,4.8,2.6,6.8,4.5c1.9,1.9,3.4,4.2,4.5,6.7c1.1,2.6,1.7,5.4,1.7,8.3c0,2.9-0.6,5.7-1.7,8.3S41,37.1,39,39.1
	c-1.9,1.9-4.2,3.4-6.7,4.5C29.7,44.7,27,45.3,24,45.3z"/>
</svg>
